<?xml version="1.0" standalone="no"?>
<!DOCTYPE svg PUBLIC "-//W3C//DTD SVG 20010904//EN"
 "http://www.w3.org/TR/2001/REC-SVG-20010904/DTD/svg10.dtd">
<svg version="1.0" xmlns="http://www.w3.org/2000/svg"
 width="281.000000pt" height="281.000000pt" viewBox="0 0 281.000000 281.000000"
 preserveAspectRatio="xMidYMid meet">
<metadata>
Created by potrace 1.11, written by Peter Selinger 2001-2013
</metadata>
<g transform="translate(0.000000,281.000000) scale(0.100000,-0.100000)"
fill="#000000" stroke="none">
<path d="M2133 2425 c-95 -26 -181 -73 -303 -166 -133 -101 -211 -217 -245
-362 -24 -103 -24 -261 -1 -334 7 -20 -4 -28 -125 -88 -72 -37 -132 -65 -134
-63 -1 2 -15 26 -30 53 -106 194 -294 312 -476 299 -140 -10 -340 -98 -472
-207 -160 -132 -250 -391 -219 -626 7 -50 15 -97 18 -105 4 -10 -10 -23 -48
-42 -73 -36 -88 -52 -88 -90 0 -24 8 -39 30 -57 35 -30 57 -28 122 8 l45 25
27 -40 c73 -111 170 -188 283 -226 67 -23 89 -26 163 -21 125 7 156 21 387
174 206 136 307 328 306 585 l-1 116 129 66 c70 36 132 66 137 66 6 0 21 -19
35 -43 32 -55 118 -142 177 -179 144 -91 347 -89 480 6 25 18 73 47 108 66
108 57 201 165 250 290 39 98 52 177 49 304 l-3 118 33 22 c80 52 28 170 -60
138 -23 -9 -29 -8 -34 6 -17 46 -90 147 -140 192 -117 107 -268 150 -400 115z"/>
</g>
</svg>
